<svg id="Ebene_1" data-name="Ebene 1" xmlns="http://www.w3.org/2000/svg" viewBox="0 0 230.72 16.46"><defs><style>.cls-1{fill:#312783;}.cls-2{fill:none;stroke:#9d9d9c;stroke-miterlimit:10;stroke-width:2px;}</style></defs><title>cova-monitor-ag</title><path class="cls-1" d="M27.19,107.25A8,8,0,0,1,24.65,101,8.38,8.38,0,0,1,27,95.31c1.26-1.26,3.17-2.25,6.4-2.25a18,18,0,0,1,3,.25c0.8,0.15,1.45.21,2.23,0.31a0.2,0.2,0,0,1,.19.23c0,0.17-.06.42-0.1,1.18s0,1.85-.06,2.16-0.06.44-.19,0.44-0.17-.15-0.17-0.44a2.91,2.91,0,0,0-.88-2.14,7,7,0,0,0-4.2-1.2c-2.79,0-4.09.82-4.83,1.53-1.53,1.47-1.89,3.34-1.89,5.48a7.58,7.58,0,0,0,7.58,7.68c1.57,0,2.81-.19,3.65-1a4,4,0,0,0,.78-1.76c0-.23.08-0.31,0.21-0.31s0.15,0.15.15,0.31a21.78,21.78,0,0,1-.46,2.69,0.72,0.72,0,0,1-.55.61,12.16,12.16,0,0,1-3.78.48C31,109.52,28.85,108.75,27.19,107.25Z" transform="translate(-24.65 -93.06)"/><path class="cls-1" d="M41.75,101.27A8.13,8.13,0,0,1,50,93.06c4.72,0,8.25,3,8.25,7.87a8.24,8.24,0,0,1-8.38,8.59C44.14,109.52,41.75,105.05,41.75,101.27Zm14.51,0.25c0-5-3.07-7.75-6.38-7.75-3.51,0-6.13,2.31-6.13,6.91,0,4.89,2.94,8,6.72,8C52.35,108.72,56.25,107.63,56.25,101.52Z" transform="translate(-24.65 -93.06)"/><path class="cls-1" d="M61.74,95.35c-0.46-1.18-.78-1.41-1.51-1.62a3.26,3.26,0,0,0-.8-0.08,0.14,0.14,0,0,1-.17-0.15c0-.13.21-0.15,0.55-0.15,1,0,2.14.06,2.39,0.06s1.11-.06,1.91-0.06c0.38,0,.57,0,0.57.15s-0.06.15-.21,0.15a2.45,2.45,0,0,0-.8.1,0.42,0.42,0,0,0-.27.42,6.16,6.16,0,0,0,.42,1.34l4.28,11.15c1.22-2.81,4-10.14,4.49-11.65a3,3,0,0,0,.19-0.8,0.52,0.52,0,0,0-.27-0.48,2.65,2.65,0,0,0-.8-0.08c-0.13,0-.23,0-0.23-0.13s0.13-.17.46-0.17c0.84,0,1.81.06,2.06,0.06s1-.06,1.64-0.06c0.23,0,.36,0,0.36.15s-0.08.15-.25,0.15a1.9,1.9,0,0,0-1,.25,4,4,0,0,0-1.15,2c-0.23.59-1.28,3.11-2.35,5.69-1.28,3.07-2.23,5.33-2.71,6.36-0.59,1.26-.67,1.6-0.88,1.6s-0.36-.29-0.76-1.3Z" transform="translate(-24.65 -93.06)"/><path class="cls-1" d="M78.94,103a0.22,0.22,0,0,0-.21.17l-1.26,3.72a4.43,4.43,0,0,0-.29,1.41,0.67,0.67,0,0,0,.76.61h0.19c0.21,0,.27,0,0.27.13s-0.19.17-.38,0.17c-0.5,0-1.34-.06-1.57-0.06s-1.39.06-2.37,0.06c-0.27,0-.4,0-0.4-0.17s0.1-.13.29-0.13a4.44,4.44,0,0,0,.5,0c1-.13,1.39-0.92,1.76-2l4.77-13c0.25-.69.34-0.82,0.46-0.82s0.21,0.1.46,0.76,3.61,9.47,4.89,12.66c0.76,1.87,1.36,2.2,1.81,2.33a2.77,2.77,0,0,0,.82.13c0.13,0,.23,0,0.23.13s-0.19.17-.42,0.17-1.85,0-3.3,0c-0.4,0-.63,0-0.63-0.15a0.16,0.16,0,0,1,.15-0.15,0.4,0.4,0,0,0,.13-0.57l-2-5.17a0.18,0.18,0,0,0-.19-0.13H78.94Zm4.24-.76c0.1,0,.1-0.06.08-0.15l-2-5.67q-0.16-.47-0.31,0l-1.85,5.67c0,0.1,0,.15.06,0.15h4Z" transform="translate(-24.65 -93.06)"/><path class="cls-1" d="M115.49,106.52c0.08,0.76.23,1.93,1.13,2.23a4.22,4.22,0,0,0,1.3.19c0.1,0,.23,0,0.23.13s-0.06.17-.31,0.17c-0.46,0-2.86-.06-3.63-0.13-0.48,0-.59-0.1-0.59-0.21s0-.1.15-0.15a0.84,0.84,0,0,0,.08-0.76l-1-11-5.21,11c-0.44.92-.5,1.11-0.69,1.11s-0.25-.21-0.65-1c-0.55-1-2.35-4.66-2.46-4.87-0.19-.38-2.6-5.56-2.83-6.13l-0.86,9.89c0,0.34,0,.63,0,1a0.65,0.65,0,0,0,.57.76,3.15,3.15,0,0,0,.76.08c0.13,0,.21,0,0.21.1s-0.1.19-.31,0.19c-0.78,0-1.85-.06-2-0.06s-1.2.06-1.76,0.06c-0.21,0-.36,0-0.36-0.17a0.18,0.18,0,0,1,.21-0.13,2.7,2.7,0,0,0,.63-0.06c0.69-.13.73-0.88,0.84-1.74l1.51-13.65a0.4,0.4,0,0,1,.23-0.42,0.39,0.39,0,0,1,.31.31l6.42,13.21,6.17-13.19a0.43,0.43,0,0,1,.31-0.34c0.15,0,.21.17,0.25,0.57Z" transform="translate(-24.65 -93.06)"/><path class="cls-1" d="M119.72,101.27A8.13,8.13,0,0,1,128,93.06c4.72,0,8.25,3,8.25,7.87a8.24,8.24,0,0,1-8.38,8.59C122.11,109.52,119.72,105.05,119.72,101.27Zm14.51,0.25c0-5-3.07-7.75-6.38-7.75-3.51,0-6.13,2.31-6.13,6.91,0,4.89,2.94,8,6.72,8C130.32,108.72,134.23,107.63,134.23,101.52Z" transform="translate(-24.65 -93.06)"/><path class="cls-1" d="M140.61,103c0-7.58,0-4.85,0-8.92,0-.82.06-1,0.23-1a2.59,2.59,0,0,1,.73.67c0.31,0.36,3.44,3.74,6.68,7.2,2.08,2.23,4.37,4.79,5,5.48l-0.23-10.67c0-1.36-.17-1.83-0.82-2a4.36,4.36,0,0,0-.9-0.1c-0.23,0-.29-0.06-0.29-0.15s0.17-.15.42-0.15c0.94,0,2,.06,2.18.06s0.92-.06,1.78-0.06c0.23,0,.38,0,0.38.15s-0.08.13-.23,0.15l-0.55.08c-0.59.13-.73,0.44-0.73,1.89l0,12.26c0,1.39,0,1.49-.19,1.49s-0.42-.23-1.53-1.34c-0.23-.21-3.25-3.3-5.48-5.69-2.44-2.62-4.81-5.27-5.48-6l0.27,10.06c0,1.72.25,2.27,0.82,2.44a4.6,4.6,0,0,0,1,.13,0.14,0.14,0,0,1,.17.13c0,0.13-.13.17-0.38,0.17-1.2,0-2-.06-2.23-0.06s-1.07.06-2,.06c-0.21,0-.34,0-0.34-0.17a0.14,0.14,0,0,1,.17-0.13,3,3,0,0,0,.86-0.13c0.52-.15.63-0.76,0.63-2.67V103Z" transform="translate(-24.65 -93.06)"/><path class="cls-1" d="M161.38,99.44c0-3.28,0-3.86,0-4.54a1,1,0,0,0-.71-1.18,2.76,2.76,0,0,0-.65-0.08,0.15,0.15,0,0,1-.17-0.13c0-.13.1-0.17,0.34-0.17,0.69,0,2,.06,2.12.06s1.43-.06,2.06-0.06c0.23,0,.34,0,0.34.17a0.15,0.15,0,0,1-.17.13,3.12,3.12,0,0,0-.52.06,1,1,0,0,0-.78,1.2c0,0.67,0,1.26,0,4.54v3.7c0,2,0,3.67.1,4.56a1,1,0,0,0,.82,1.15c0.29,0,.73.08,0.86,0.08s0.25,0.06.25,0.13-0.08.17-.31,0.17c-1.15,0-2.5-.06-2.6-0.06s-1.43.06-2.06,0.06c-0.23,0-.34,0-0.34-0.17s0-.13.23-0.13a2.9,2.9,0,0,0,.55-0.06,1.17,1.17,0,0,0,.63-1.18c0.1-.88.1-2.54,0.1-4.56v-3.7Z" transform="translate(-24.65 -93.06)"/><path class="cls-1" d="M175.28,103.14c0,2,0,3.67.1,4.56a1,1,0,0,0,.82,1.15,9.16,9.16,0,0,0,.94.08,0.14,0.14,0,0,1,.17.13c0,0.1-.1.17-0.34,0.17-1.15,0-2.48-.06-2.58-0.06s-1.43.06-2.06,0.06c-0.23,0-.34,0-0.34-0.17a0.14,0.14,0,0,1,.17-0.13,3.24,3.24,0,0,0,.63-0.08,1.12,1.12,0,0,0,.61-1.15c0.1-.88.1-2.54,0.1-4.56V94.26l-3.11,0c-1.3,0-1.81.17-2.14,0.67a3.69,3.69,0,0,0-.36.65,0.23,0.23,0,0,1-.21.21c-0.06,0-.1-0.06-0.1-0.19s0.42-2,.46-2.18a0.71,0.71,0,0,1,.21-0.4,3.92,3.92,0,0,0,.92.25c0.61,0.06,1.41.1,1.66,0.1h7.87a8.39,8.39,0,0,0,1.49-.1c0.31,0,.5-0.1.59-0.1s0.1,0.13.1,0.25c0,0.63-.06,2.08-0.06,2.31s-0.06.27-.15,0.27-0.15-.06-0.17-0.36c0-.08,0-0.15,0-0.23-0.06-.63-0.57-1.11-2.58-1.15l-2.65,0v8.88Z" transform="translate(-24.65 -93.06)"/><path class="cls-1" d="M182.72,101.27A8.13,8.13,0,0,1,191,93.06c4.72,0,8.25,3,8.25,7.87a8.24,8.24,0,0,1-8.38,8.59C185.11,109.52,182.72,105.05,182.72,101.27Zm14.51,0.25c0-5-3.07-7.75-6.38-7.75-3.51,0-6.13,2.31-6.13,6.91,0,4.89,2.94,8,6.72,8C193.32,108.72,197.23,107.63,197.23,101.52Z" transform="translate(-24.65 -93.06)"/><path class="cls-1" d="M204.2,99.44c0-3.28,0-3.86,0-4.54a1,1,0,0,0-.9-1.2,3.93,3.93,0,0,0-.71-0.06,0.15,0.15,0,0,1-.17-0.13c0-.13.1-0.17,0.34-0.17,0.94,0,2.27.06,2.37,0.06s1.83-.06,2.48-0.06a6.47,6.47,0,0,1,3.84.92,3.67,3.67,0,0,1,1.45,2.86c0,1.55-.65,3.11-2.54,4.85,1.72,2.2,3.15,4.07,4.37,5.38a4.34,4.34,0,0,0,2.56,1.51,5,5,0,0,0,.82.06,0.17,0.17,0,0,1,.19.13c0,0.13-.13.17-0.5,0.17h-1.49a4.27,4.27,0,0,1-2.25-.4c-0.9-.48-1.64-1.51-2.83-3.09-0.88-1.15-1.87-2.56-2.29-3.11a0.34,0.34,0,0,0-.27-0.13l-2.58,0a0.14,0.14,0,0,0-.15.17v0.5c0,2,0,3.67.1,4.56a1,1,0,0,0,.82,1.15,9.16,9.16,0,0,0,.94.08,0.14,0.14,0,0,1,.17.13c0,0.1-.1.17-0.34,0.17-1.15,0-2.48-.06-2.58-0.06s-1.34.06-2,.06c-0.23,0-.34,0-0.34-0.17a0.14,0.14,0,0,1,.17-0.13,3.24,3.24,0,0,0,.63-0.08,1.12,1.12,0,0,0,.61-1.15c0.1-.88.1-2.54,0.1-4.56v-3.7Zm1.68,1.83a0.27,0.27,0,0,0,.15.25,5.79,5.79,0,0,0,2.2.34,2.72,2.72,0,0,0,1.57-.4,3.83,3.83,0,0,0,1.28-3.23c0-2.62-1.39-4.2-3.63-4.2a6.34,6.34,0,0,0-1.41.13,0.25,0.25,0,0,0-.17.25v6.87Z" transform="translate(-24.65 -93.06)"/><path class="cls-1" d="M228.2,103a0.22,0.22,0,0,0-.21.17l-1.26,3.72a4.43,4.43,0,0,0-.29,1.41,0.67,0.67,0,0,0,.76.61h0.19c0.21,0,.27,0,0.27.13s-0.19.17-.38,0.17c-0.5,0-1.34-.06-1.57-0.06s-1.39.06-2.37,0.06c-0.27,0-.4,0-0.4-0.17s0.1-.13.29-0.13a4.44,4.44,0,0,0,.5,0c1-.13,1.39-0.92,1.76-2l4.77-13c0.25-.69.34-0.82,0.46-0.82s0.21,0.1.46,0.76,3.61,9.47,4.89,12.66c0.76,1.87,1.36,2.2,1.81,2.33a2.77,2.77,0,0,0,.82.13c0.13,0,.23,0,0.23.13s-0.19.17-.42,0.17-1.85,0-3.3,0c-0.4,0-.63,0-0.63-0.15a0.16,0.16,0,0,1,.15-0.15,0.4,0.4,0,0,0,.13-0.57l-2-5.17a0.18,0.18,0,0,0-.19-0.13H228.2Zm4.24-.76c0.1,0,.1-0.06.08-0.15l-2-5.67q-0.16-.47-0.31,0l-1.85,5.67c0,0.1,0,.15.06,0.15h4Z" transform="translate(-24.65 -93.06)"/><path class="cls-1" d="M253.86,107.44c0,0.94,0,1-.27,1.13a11.43,11.43,0,0,1-11.36-1.3,8.2,8.2,0,0,1-2.5-6,8,8,0,0,1,3.51-6.91,10.31,10.31,0,0,1,5.58-1.32,18,18,0,0,1,3.21.36,10.46,10.46,0,0,0,1.7.21c0.21,0,.25.1,0.25,0.19a26.57,26.57,0,0,0-.15,3c0,0.34,0,.44-0.19.44s-0.13-.13-0.15-0.31a3.23,3.23,0,0,0-.44-1.39c-0.52-.8-2.23-1.7-4.93-1.7a6,6,0,0,0-6.57,6.72,8.56,8.56,0,0,0,2.23,5.82,7.64,7.64,0,0,0,5.5,2.25,5.73,5.73,0,0,0,2.39-.44,0.76,0.76,0,0,0,.42-0.73v-3.57c0-1.7-.1-1.93-0.94-2.16a3.93,3.93,0,0,0-.71-0.06,0.15,0.15,0,0,1-.17-0.13c0-.13.1-0.17,0.34-0.17,0.94,0,2.27.06,2.37,0.06s1.43-.06,2.06-0.06c0.23,0,.34,0,0.34.17a0.15,0.15,0,0,1-.17.13,3.12,3.12,0,0,0-.52.06,1,1,0,0,0-.78,1.2c0,0.67,0,1.3,0,2.18v2.35Z" transform="translate(-24.65 -93.06)"/><path class="cls-2" d="M140,118" transform="translate(-24.65 -93.06)"/></svg>